<svg width="109" height="106" viewBox="0 0 109 106" fill="none" xmlns="http://www.w3.org/2000/svg">
<ellipse cx="54.0816" cy="53" rx="54.0816" ry="53" fill="#0E0E0E" fill-opacity="0.78"/>
<path d="M80.6415 66.3082V68.4082H64.0215V66.3082L67.2615 66.2482L64.4415 35.4682L52.8615 61.6882H51.0015L38.5815 35.2882L37.4415 66.2482L40.6815 66.3082V68.4082H27.5415V66.3082L29.8815 66.2482L35.6415 30.3682L32.3415 30.3082V28.2082H46.1415L55.8015 47.8282L64.1415 28.2082H76.5615V30.3082L73.3815 30.3682L78.3015 66.2482L80.6415 66.3082Z" fill="white"/>
<mask id="mask0" mask-type="alpha" maskUnits="userSpaceOnUse" x="27" y="28" width="54" height="41">
<path d="M80.6415 66.3082V68.4082H64.0215V66.3082L67.2615 66.2482L64.4415 35.4682L52.8615 61.6882H51.0015L38.5815 35.2882L37.4415 66.2482L40.6815 66.3082V68.4082H27.5415V66.3082L29.8815 66.2482L35.6415 30.3682L32.3415 30.3082V28.2082H46.1415L55.8015 47.8282L64.1415 28.2082H76.5615V30.3082L73.3815 30.3682L78.3015 66.2482L80.6415 66.3082Z" fill="white"/>
</mask>
<g mask="url(#mask0)">
<path d="M63.2756 25.9592C53.0001 31.3673 31.9082 42.5082 29.745 43.8061L45.4286 31.3673L38.398 27.0408L24.8776 35.1531L14.0613 39.4796L28.1225 53L58.4082 47.051H75.7143L88.6939 41.102L75.7143 37.3163L63.2756 25.9592Z" fill="url(#paint0_linear)"/>
<path d="M44.347 59.4898L24.8776 66.5204L31.9082 71.3878L28.6633 82.7449L58.4082 71.3878H91.398C89.0544 69.7653 84.151 68.6837 83.2857 68.6837C82.4204 68.6837 68.864 62.5544 62.1939 59.4898H44.347Z" fill="url(#paint1_angular)"/>
</g>
<defs>
<linearGradient id="paint0_linear" x1="25.9592" y1="37.8571" x2="87.6123" y2="44.8878" gradientUnits="userSpaceOnUse">
<stop offset="0.101497" stop-color="#F84848"/>
<stop offset="0.361111" stop-color="#9E4322" stop-opacity="0.711059"/>
<stop offset="0.725695" stop-color="#857D22" stop-opacity="0.305292"/>
<stop offset="0.77257" stop-color="#7C801F" stop-opacity="0.253121"/>
<stop offset="0.975695" stop-color="#579213" stop-opacity="0.0270509"/>
<stop offset="1" stop-color="#539412" stop-opacity="0"/>
</linearGradient>
<radialGradient id="paint1_angular" cx="0" cy="0" r="1" gradientUnits="userSpaceOnUse" gradientTransform="translate(60.5714 71.3878) rotate(102.095) scale(11.615 33.2242)">
<stop stop-color="#C4C4C4"/>
<stop offset="0.111111" stop-color="#2DC03C" stop-opacity="0.888889"/>
<stop offset="1" stop-color="#C4C4C4" stop-opacity="0"/>
</radialGradient>
</defs>
</svg>
